<?xml version="1.0" encoding="UTF-8"?>
<svg version="1.1" viewBox="0 0 299.78 103.13" xml:space="preserve" xmlns="http://www.w3.org/2000/svg" xmlns:cc="http://creativecommons.org/ns#" xmlns:dc="http://purl.org/dc/elements/1.1/" xmlns:rdf="http://www.w3.org/1999/02/22-rdf-syntax-ns#"><metadata><rdf:RDF><cc:Work rdf:about=""><dc:format>image/svg+xml</dc:format><dc:type rdf:resource="http://purl.org/dc/dcmitype/StillImage"/><dc:title/></cc:Work></rdf:RDF></metadata><g transform="matrix(.21355 0 0 .21355 -8.3532 1.3467)"><polygon points="342.29 32.594 314.18 50.799 311.62 65.33 339.73 47.125"/><polygon points="337.03 62.381 308.93 80.581 305.98 97.298 334.09 79.092"/><polygon points="347.29 4.257 323.15 0 316.88 35.541 344.98 17.34"/><path d="m267.25 155.94c-8.377 0-15.174 6.791-15.174 15.173 0 8.389 6.797 15.18 15.174 15.18 0.389 0 0.762-0.09 1.135-0.112 3.661 26.969-24.635 51.625-51.435 53.078-30.184 1.629-42.702-27.605-45.202-53.397 6.709-1.567 11.712-7.56 11.712-14.742 0-8.378-6.793-15.174-15.174-15.174-8.377 0-15.173 6.791-15.173 15.174 0 4.646 2.128 8.747 5.416 11.533 2.22 35.485 22.442 74.765 64.052 69.129 34.83-4.717 65.965-38.285 57.522-72.662 1.457-2.332 2.325-5.054 2.325-8-3e-3 -8.384-6.8-15.18-15.178-15.18z"/><path d="m382.41 426.77c-11.159-43.923-44.178-194.69-0.588-290.6 0.046-0.093 0.052-0.194 0.093-0.29 0.235-0.562 0.407-1.127 0.533-1.715 0.032-0.145 0.08-0.285 0.107-0.425 0.12-0.728 0.158-1.469 0.12-2.207-5e-3 -0.135-0.05-0.271-0.06-0.4-0.065-0.593-0.174-1.182-0.355-1.765-0.061-0.208-0.136-0.407-0.214-0.61-0.191-0.509-0.431-1.004-0.711-1.485-0.064-0.118-0.098-0.257-0.182-0.386-0.041-0.074-0.112-0.118-0.153-0.192-0.08-0.112-0.126-0.235-0.206-0.347l-31.349-42.148c-1.11-1.502-2.648-2.567-4.347-3.215 3.613 8.758 3.007 19.403-1.825 27.519l10.356 13.929h-43.725l18.676-12.099 2.825-15.986-28.104 18.206-1.751 9.88h-29.452l14.392-22.696 3.277-5.321-22.199-14.131-53.426-33.877-16.085 25.366 15.609 50.665h-8.073l-32.701-106.16-85.681 26.397 11.575 37.588h-8.981c-3.648 0-6.994 2.038-8.656 5.289l-21.613 42.148c-0.096 0.187-0.134 0.38-0.225 0.572-0.112 0.246-0.208 0.493-0.294 0.755-0.159 0.466-0.277 0.936-0.356 1.415-0.043 0.222-0.093 0.441-0.118 0.67-0.06 0.635-0.071 1.262-0.011 1.888 7e-3 0.084-5e-3 0.164 0 0.249 0.086 0.706 0.261 1.406 0.495 2.082 0.023 0.058 0.023 0.113 0.039 0.17 46.047 125.29 13.634 255.43 2.599 292.33-0.631 2.122-1.807 6.085 1.166 10.024 1.834 2.435 4.72 3.863 7.762 3.863h0.128c2.638-0.033 4.566-0.939 6-2.209h291.26c1.385 1.021 3.192 1.732 5.565 1.732 3.006 0 5.841-1.388 7.685-3.759 2.936-3.776 2.041-7.311 1.176-10.726zm-286.65-327.04h9.028l6.99 22.695h-27.668zm-11.706 320.34c12.849-48.63 35.138-163.79-2.197-278.18h276.61c-34.768 93.836-10.332 224.64 2.278 278.18z"/></g><text x="210.49998" y="56.125053" fill="#000000" font-family="sans-serif" font-size="40px" letter-spacing="0px" word-spacing="0px" style="line-height:1.25" xml:space="preserve"><tspan x="210.49998" y="92.618263"/></text>
<text x="94.5" y="87.625053" fill="#000000" font-family="sans-serif" font-size="40px" letter-spacing="0px" word-spacing="0px" style="line-height:1.25" xml:space="preserve"><tspan x="94.5" y="124.11826"/></text>
<text x="123.49999" y="54.625057" fill="#000000" font-family="sans-serif" font-size="40px" letter-spacing="0px" word-spacing="0px" style="line-height:1.25" xml:space="preserve"><tspan x="123.49999" y="91.118271"/></text>
<g aria-label="Mimity"><path d="m155.92 22.287c-0.97222 0-1.7222 0.33333-2.25 1-0.52778 0.66667-0.79102 1.4735-0.79102 2.418s0.26324 1.7493 0.79102 2.416c0.52778 0.63889 1.2778 0.95898 2.25 0.95898s1.7222-0.3201 2.25-0.95898c0.55555-0.66667 0.83398-1.4716 0.83398-2.416s-0.27843-1.7513-0.83398-2.418c-0.52778-0.66667-1.2778-1-2.25-1zm77.102 0c-0.97222 0-1.7222 0.33333-2.25 1-0.52778 0.66667-0.79297 1.4735-0.79297 2.418s0.26519 1.7493 0.79297 2.416c0.52778 0.63889 1.2778 0.95898 2.25 0.95898s1.7222-0.3201 2.25-0.95898c0.55555-0.66667 0.83203-1.4716 0.83203-2.416s-0.27648-1.7513-0.83203-2.418c-0.52778-0.66667-1.2778-1-2.25-1zm-139.86 0.83398v60.666h4.75v-26.457l-0.41602-26.043 18.5 52.5h3.666l18.584-52.75-0.41602 26.459v26.291h4.75v-60.666h-6.293l-18.457 53.375-18.375-53.375zm154.37 4.084v11.5h-6.959v4.166h6.959v30.584c0.13889 7.4444 2.9173 11.166 8.334 11.166 1.9722 0 3.4854-0.23676 4.541-0.70898l-0.125-4.166c-1.4722 0.27778-2.584 0.41602-3.334 0.41602-1.7222 0-2.957-0.59657-3.707-1.791-0.72222-1.2222-1.084-3.0688-1.084-5.541v-29.959h7.709v-4.166h-7.709v-11.5zm-62.975 10.666c-5.25 0-9.2784 2.5284-12.084 7.584l-0.125-6.75h-4.416v45.082h4.625v-31.375c0.83334-3.25 2.1667-5.75 4-7.5 1.8611-1.75 4.0543-2.625 6.582-2.625 3.0833 0 5.3485 0.95833 6.793 2.875 1.4722 1.9167 2.207 4.8485 2.207 8.793v29.832h4.668v-30c0.27778-3.2778 1.4028-5.9993 3.375-8.166 1.9722-2.1667 4.3889-3.2784 7.25-3.334 3.1667 0 5.4431 0.95833 6.832 2.875 1.3889 1.8889 2.1124 4.7791 2.168 8.668v29.957h4.625v-30.25c-0.19444-10.444-4.3479-15.666-12.459-15.666-2.6389 0-5.084 0.6951-7.334 2.084-2.2222 1.3889-4.0404 3.457-5.457 6.207-1.6944-5.5278-5.4444-8.291-11.25-8.291zm-31.01 0.83398v45.082h4.668v-45.082zm77.102 0v45.082h4.666v-45.082zm32.141 0 14.168 44.791-1.918 6.375c-0.83334 2.6667-1.8882 4.5966-3.166 5.791-1.2778 1.1944-2.916 1.793-4.916 1.793-0.77778 0-1.4861-0.09852-2.125-0.29297l0.041 4.25c1.1667 0.38889 2.2784 0.58398 3.334 0.58398 4.4167 0 7.6932-2.8333 9.832-8.5l0.875-2.5 15.875-52.291h-4.957l-10.75 37.457-11.209-37.457z"/></g></svg>
