<?xml version="1.0" encoding="UTF-8" standalone="no"?>
<svg
   xmlns:dc="http://purl.org/dc/elements/1.1/"
   xmlns:cc="http://creativecommons.org/ns#"
   xmlns:rdf="http://www.w3.org/1999/02/22-rdf-syntax-ns#"
   xmlns:svg="http://www.w3.org/2000/svg"
   xmlns="http://www.w3.org/2000/svg"
   xmlns:sodipodi="http://sodipodi.sourceforge.net/DTD/sodipodi-0.dtd"
   xmlns:inkscape="http://www.inkscape.org/namespaces/inkscape"
   version="1.1"
   viewBox="0 0 299.78 103.13"
   xml:space="preserve"
   id="svg32"
   sodipodi:docname="logo-text.svg"
   inkscape:version="0.92.2 (5c3e80d, 2017-08-06)"><defs
     id="defs36" /><sodipodi:namedview
     pagecolor="#ffffff"
     bordercolor="#666666"
     borderopacity="1"
     objecttolerance="10"
     gridtolerance="10"
     guidetolerance="10"
     inkscape:pageopacity="0"
     inkscape:pageshadow="2"
     inkscape:window-width="1366"
     inkscape:window-height="715"
     id="namedview34"
     showgrid="false"
     inkscape:zoom="2.6795427"
     inkscape:cx="135.70435"
     inkscape:cy="48.220214"
     inkscape:window-x="-8"
     inkscape:window-y="-8"
     inkscape:window-maximized="1"
     inkscape:current-layer="svg32" /><metadata
     id="metadata2"><rdf:RDF><cc:Work
         rdf:about=""><dc:format>image/svg+xml</dc:format><dc:type
           rdf:resource="http://purl.org/dc/dcmitype/StillImage" /><dc:title /></cc:Work></rdf:RDF></metadata><text
     x="210.49998"
     y="56.125053"
     fill="#000000"
     font-family="sans-serif"
     font-size="40px"
     letter-spacing="0px"
     word-spacing="0px"
     style="line-height:1.25"
     xml:space="preserve"
     id="text18"><tspan
       x="210.49998"
       y="92.618263"
       id="tspan16" /></text>
<text
     x="94.5"
     y="87.625053"
     fill="#000000"
     font-family="sans-serif"
     font-size="40px"
     letter-spacing="0px"
     word-spacing="0px"
     style="line-height:1.25"
     xml:space="preserve"
     id="text22"><tspan
       x="94.5"
       y="124.11826"
       id="tspan20" /></text>
<text
     x="123.49999"
     y="54.625057"
     fill="#000000"
     font-family="sans-serif"
     font-size="40px"
     letter-spacing="0px"
     word-spacing="0px"
     style="line-height:1.25"
     xml:space="preserve"
     id="text26"><tspan
       x="123.49999"
       y="91.118271"
       id="tspan24" /></text>
<g
     aria-label="Mimity"
     id="g30"
     transform="translate(-44,-4)"><path
       d="m 155.92,22.287 c -0.97222,0 -1.7222,0.33333 -2.25,1 -0.52778,0.66667 -0.79102,1.4735 -0.79102,2.418 0,0.9445 0.26324,1.7493 0.79102,2.416 0.52778,0.63889 1.2778,0.95898 2.25,0.95898 0.9722,0 1.7222,-0.3201 2.25,-0.95898 0.55555,-0.66667 0.83398,-1.4716 0.83398,-2.416 0,-0.9444 -0.27843,-1.7513 -0.83398,-2.418 -0.52778,-0.66667 -1.2778,-1 -2.25,-1 z m 77.102,0 c -0.97222,0 -1.7222,0.33333 -2.25,1 -0.52778,0.66667 -0.79297,1.4735 -0.79297,2.418 0,0.9445 0.26519,1.7493 0.79297,2.416 0.52778,0.63889 1.2778,0.95898 2.25,0.95898 0.9722,0 1.7222,-0.3201 2.25,-0.95898 0.55555,-0.66667 0.83203,-1.4716 0.83203,-2.416 0,-0.9444 -0.27648,-1.7513 -0.83203,-2.418 -0.52778,-0.66667 -1.2778,-1 -2.25,-1 z m -139.86,0.83398 v 60.666 h 4.75 v -26.457 l -0.41602,-26.043 18.5,52.5 h 3.666 l 18.584,-52.75 -0.41602,26.459 v 26.291 h 4.75 v -60.666 h -6.293 l -18.457,53.375 -18.375,-53.375 z m 154.37,4.084 v 11.5 h -6.959 v 4.166 h 6.959 v 30.584 c 0.13889,7.4444 2.9173,11.166 8.334,11.166 1.9722,0 3.4854,-0.23676 4.541,-0.70898 l -0.125,-4.166 c -1.4722,0.27778 -2.584,0.41602 -3.334,0.41602 -1.7222,0 -2.957,-0.59657 -3.707,-1.791 -0.72222,-1.2222 -1.084,-3.0688 -1.084,-5.541 v -29.959 h 7.709 v -4.166 h -7.709 v -11.5 z m -62.975,10.666 c -5.25,0 -9.2784,2.5284 -12.084,7.584 l -0.125,-6.75 h -4.416 v 45.082 h 4.625 v -31.375 c 0.83334,-3.25 2.1667,-5.75 4,-7.5 1.8611,-1.75 4.0543,-2.625 6.582,-2.625 3.0833,0 5.3485,0.95833 6.793,2.875 1.4722,1.9167 2.207,4.8485 2.207,8.793 v 29.832 h 4.668 v -30 c 0.27778,-3.2778 1.4028,-5.9993 3.375,-8.166 1.9722,-2.1667 4.3889,-3.2784 7.25,-3.334 3.1667,0 5.4431,0.95833 6.832,2.875 1.3889,1.8889 2.1124,4.7791 2.168,8.668 v 29.957 h 4.625 v -30.25 c -0.19444,-10.444 -4.3479,-15.666 -12.459,-15.666 -2.6389,0 -5.084,0.6951 -7.334,2.084 -2.2222,1.3889 -4.0404,3.457 -5.457,6.207 -1.6944,-5.5278 -5.4444,-8.291 -11.25,-8.291 z m -31.01,0.83398 v 45.082 h 4.668 v -45.082 z m 77.102,0 v 45.082 h 4.666 v -45.082 z m 32.141,0 14.168,44.791 -1.918,6.375 c -0.83334,2.6667 -1.8882,4.5966 -3.166,5.791 -1.2778,1.1944 -2.916,1.793 -4.916,1.793 -0.77778,0 -1.4861,-0.09852 -2.125,-0.29297 l 0.041,4.25 c 1.1667,0.38889 2.2784,0.58398 3.334,0.58398 4.4167,0 7.6932,-2.8333 9.832,-8.5 l 0.875,-2.5 15.875,-52.291 h -4.957 l -10.75,37.457 -11.209,-37.457 z"
       id="path28"
       inkscape:connector-curvature="0" /></g></svg>